<svg width="26" height="26" viewBox="0 0 26 26" fill="none" xmlns="http://www.w3.org/2000/svg">
<path fill-rule="evenodd" clip-rule="evenodd" d="M5.79492 5.85623C5.79492 2.80584 8.52138 0.333008 11.8846 0.333008C15.2479 0.333008 17.9743 2.80584 17.9743 5.85623C17.9743 8.90662 15.2479 11.3795 11.8846 11.3795C8.52138 11.3795 5.79492 8.90662 5.79492 5.85623ZM11.8846 2.07718C9.58345 2.07718 7.71799 3.76912 7.71799 5.85623C7.71799 7.94335 9.58345 9.63528 11.8846 9.63528C14.1859 9.63528 16.0512 7.94335 16.0512 5.85623C16.0512 3.76912 14.1859 2.07718 11.8846 2.07718Z" fill="white"/>
<path d="M19.5769 15.0615C20.1079 15.0615 20.5384 15.4519 20.5384 15.9336V16.6119H21.2861C21.8171 16.6119 22.2477 17.0023 22.2477 17.484C22.2477 17.9656 21.8171 18.356 21.2861 18.356H20.5384V19.0343C20.5384 19.5159 20.1079 19.9064 19.5769 19.9064C19.0459 19.9064 18.6154 19.5159 18.6154 19.0343V18.356H17.8673C17.3363 18.356 16.9058 17.9656 16.9058 17.484C16.9058 17.0023 17.3363 16.6119 17.8673 16.6119H18.6154V15.9336C18.6154 15.4519 19.0459 15.0615 19.5769 15.0615Z" fill="white"/>
<path fill-rule="evenodd" clip-rule="evenodd" d="M15.4418 13.4294C14.323 13.2308 13.1262 13.1237 11.8845 13.1237C8.91849 13.1237 6.18578 13.7352 4.16082 14.7682C2.16601 15.786 0.666668 17.3285 0.666668 19.2283L0.666591 19.3469C0.665142 20.6979 0.663321 22.3934 2.3031 23.6045C3.1101 24.2005 4.23906 24.6244 5.76435 24.9045C7.29389 25.1852 9.28743 25.333 11.8845 25.333C15.5616 25.333 18.051 25.0377 19.7301 24.4707C21.2415 23.9605 22.1374 23.2127 22.6158 22.2716C24.4392 21.3174 25.6665 19.5308 25.6665 17.4842C25.6665 14.4337 22.9401 11.9609 19.5768 11.9609C17.9805 11.9609 16.5277 12.518 15.4418 13.4294ZM5.10363 16.2885C3.38637 17.1645 2.58974 18.2385 2.58974 19.2283C2.58974 20.749 2.64143 21.6051 3.51741 22.252C3.99245 22.603 4.78656 22.9454 6.14586 23.1949C7.50092 23.4437 9.35351 23.5888 11.8845 23.5888C15.1896 23.5888 17.3205 23.3406 18.6933 22.9497C15.7487 22.5616 13.4871 20.2624 13.4871 17.4842C13.4871 16.5914 13.7207 15.748 14.1354 15.0016C13.4153 14.9144 12.6616 14.8679 11.8845 14.8679C9.18622 14.8679 6.79074 15.4278 5.10363 16.2885ZM15.4101 17.4842C15.4101 15.3971 17.2756 13.7051 19.5768 13.7051C21.8781 13.7051 23.7434 15.3971 23.7434 17.4842C23.7434 19.5712 21.8781 21.2632 19.5768 21.2632C17.2756 21.2632 15.4101 19.5712 15.4101 17.4842Z" fill="white"/>
</svg>
