<svg width="26" height="26" viewBox="0 0 26 26" fill="none" xmlns="http://www.w3.org/2000/svg">
<path fill-rule="evenodd" clip-rule="evenodd" d="M17.2568 0.333375H9.63676C7.70324 0.333351 6.15288 0.333328 4.95212 0.493456C3.71046 0.659037 2.67766 1.01448 1.9167 1.8484C1.15573 2.6823 0.936463 3.69893 0.947146 4.88233C0.957471 6.02675 1.18747 7.47368 1.47432 9.27821L2.97285 18.7064C3.19032 20.0747 3.3664 21.1827 3.62479 22.0499C3.89381 22.9528 4.28023 23.7 4.99013 24.277C5.70004 24.854 6.54042 25.1037 7.52645 25.2209C8.47351 25.3334 9.66071 25.3334 11.1269 25.3334H15.7667C17.2329 25.3334 18.42 25.3334 19.3672 25.2209C20.3531 25.1037 21.1935 24.854 21.9035 24.277C22.6133 23.7 22.9998 22.9528 23.2688 22.0499C23.5272 21.1828 23.7032 20.0748 23.9207 18.7065L25.4193 9.27818C25.7061 7.47366 25.9361 6.02673 25.9464 4.88233C25.9571 3.69893 25.7378 2.6823 24.9769 1.8484C24.2159 1.01448 23.1831 0.659037 21.9414 0.493456C20.7407 0.333328 19.1904 0.333351 17.2568 0.333375ZM3.31713 2.98657C3.66216 2.60847 4.1802 2.35791 5.21072 2.22049C6.26701 2.07962 7.68621 2.07756 9.70993 2.07756H17.1836C19.2074 2.07756 20.6265 2.07962 21.6828 2.22049C22.7133 2.35791 23.2314 2.60847 23.5764 2.98657C23.9214 3.36468 24.1072 3.88533 24.0984 4.86748C24.098 4.90603 24.0974 4.94505 24.0964 4.98454H23.9202C23.9204 4.98454 23.9199 4.98454 23.9202 4.98454H7.28659C7.28683 4.98454 7.28634 4.98454 7.28659 4.98454H2.79717C2.79624 4.94504 2.7956 4.90603 2.79524 4.86748C2.78638 3.88533 2.9721 3.36468 3.31713 2.98657ZM5.05527 6.72872H2.95571C3.01906 7.20375 3.09882 7.72984 3.19086 8.31651L3.28184 8.40237L5.05527 6.72872ZM3.65145 11.2178L4.41348 16.0122L6.51718 13.9223L3.65145 11.2178ZM5.01474 19.7628C5.03465 19.8792 5.05433 19.9919 5.07393 20.1008H5.31326L5.01474 19.7628ZM7.2802 21.845C7.28454 21.845 7.28889 21.845 7.29323 21.845H15.9074C15.9097 21.845 15.9119 21.845 15.9142 21.845H21.4032C21.2077 22.4016 20.9842 22.7222 20.6974 22.9554C20.3675 23.2235 19.9288 23.3963 19.1363 23.4904C18.3181 23.5876 17.2476 23.5892 15.7051 23.5892H11.1885C9.646 23.5892 8.57545 23.5876 7.75728 23.4904C6.96487 23.3963 6.52607 23.2235 6.19618 22.9554C5.90934 22.7222 5.68585 22.4016 5.4903 21.845H7.2802ZM18.0216 20.1008H21.0728L19.4862 18.6035L18.0216 20.1008ZM22.0723 18.5774C22.0821 18.5158 22.0921 18.4534 22.1021 18.3901L22.5692 15.4514L20.7407 17.3208L22.0723 18.5774ZM23.1261 11.9474L23.5806 9.08778C23.6974 8.35283 23.8004 7.70326 23.8831 7.1246L21.0364 9.81104L23.1261 11.9474ZM21.6888 6.72872H18.0216L19.7819 8.52837L21.6888 6.72872ZM13.7586 6.72872H9.51716L11.6922 8.78141L13.7586 6.72872ZM13.064 20.1008H10.1332L11.5987 18.7179L13.064 20.1008ZM7.79053 12.6573L4.5887 9.6357L7.28622 7.08996L10.4189 10.0464L7.79053 12.6573ZM9.09782 13.8912L11.7262 11.2801L14.2961 13.7055L11.5987 16.2512L9.09782 13.8912ZM12.9055 17.4845L15.6031 14.9388L18.1783 17.3692L15.5886 20.0167L12.9055 17.4845ZM16.9098 13.7055L19.4328 16.0865L22.0461 13.4148L19.7285 11.0454L16.9098 13.7055ZM15.6031 12.4721L18.474 9.76269L15.9013 7.13246L12.9995 10.0151L15.6031 12.4721ZM7.82446 15.156L10.2918 17.4845L7.62834 19.9981L5.44233 17.5224L7.82446 15.156Z" fill="#FFFCFC"/>
</svg>
