<svg width="24" height="24" viewBox="0 0 24 24" fill="none" xmlns="http://www.w3.org/2000/svg">
<path d="M9.33366 9.83333C11.6348 9.83333 13.5003 7.96785 13.5003 5.66667C13.5003 3.36548 11.6348 1.5 9.33366 1.5C7.03247 1.5 5.16699 3.36548 5.16699 5.66667C5.16699 7.96785 7.03247 9.83333 9.33366 9.83333Z" stroke="white" stroke-width="2"/>
<path d="M17.6641 18.1663C17.6667 17.9953 17.6667 17.8215 17.6667 17.6455C17.6667 15.0567 13.9357 12.958 9.33333 12.958C4.73096 12.958 1 15.0567 1 17.6455C1 20.2344 1 22.333 9.33333 22.333C11.6573 22.333 13.3331 22.1698 14.5417 21.8782" stroke="white" stroke-width="2" stroke-linecap="round"/>
<path d="M17 3H23" stroke="white" stroke-width="2" stroke-linecap="round"/>
<path d="M17 7H23" stroke="white" stroke-width="2" stroke-linecap="round"/>
<path d="M17 11H23" stroke="white" stroke-width="2" stroke-linecap="round"/>
</svg>
