<svg width="25" height="25" viewBox="0 0 25 25" fill="none" xmlns="http://www.w3.org/2000/svg">
<path fill-rule="evenodd" clip-rule="evenodd" d="M15.7053 1.59471C17.8316 -0.531569 21.279 -0.531569 23.4053 1.59471C25.5316 3.72098 25.5316 7.16835 23.4053 9.29463L12.3759 20.324C11.7458 20.9542 11.3747 21.3252 10.9621 21.6471C10.4758 22.0264 9.94945 22.3517 9.39261 22.6171C8.92017 22.8422 8.42247 23.0081 7.57699 23.2899L3.70361 24.581L2.77096 24.8919C2.0145 25.144 1.18049 24.9472 0.616649 24.3833C0.0528135 23.8195 -0.14407 22.9854 0.108092 22.229L1.71009 17.423C1.99189 16.5775 2.15776 16.0799 2.38292 15.6074C2.64831 15.0506 2.97356 14.5243 3.35295 14.0379C3.67482 13.6252 4.04579 13.2543 4.676 12.6241L15.7053 1.59471ZM22.1719 2.82803C20.7268 1.3829 18.3838 1.3829 16.9387 2.82803L16.169 3.59772C16.2088 3.80116 16.276 4.07772 16.3881 4.40101C16.6407 5.12886 17.1176 6.08474 18.0165 6.98354C18.9152 7.88233 19.8711 8.35933 20.5989 8.61185C20.9223 8.72401 21.1988 8.79122 21.4023 8.83099L22.1719 8.06129C23.617 6.61617 23.617 4.27316 22.1719 2.82803ZM19.9875 10.2458C19.0704 9.92232 17.889 9.32281 16.7831 8.21686C15.6772 7.1109 15.0776 5.92951 14.7543 5.01249L5.95251 13.8142C5.26686 14.4999 4.97626 14.7925 4.72824 15.1106C4.42678 15.4971 4.16832 15.9152 3.95744 16.3578C3.78396 16.7217 3.65208 17.1127 3.34545 18.0325L2.24409 21.3366L3.66337 22.7559L6.96746 21.6545C7.88735 21.3479 8.2782 21.216 8.64222 21.0425C9.08471 20.8317 9.50291 20.5732 9.88942 20.2717C10.2074 20.0237 10.5001 19.7331 11.1858 19.0474L19.9875 10.2458Z" fill="white"/>
</svg>
