<svg width="26" height="26" viewBox="0 0 26 26" fill="none" xmlns="http://www.w3.org/2000/svg">
<path fill-rule="evenodd" clip-rule="evenodd" d="M12.2521 2.0772C6.63293 2.0772 2.07768 6.63245 2.07768 12.2516C2.07768 17.8708 6.63293 22.4261 12.2521 22.4261C17.8713 22.4261 22.4265 17.8708 22.4265 12.2516C22.4265 6.63245 17.8713 2.0772 12.2521 2.0772ZM0.333496 12.2516C0.333496 5.66915 5.66964 0.333008 12.2521 0.333008C18.8346 0.333008 24.1707 5.66915 24.1707 12.2516C24.1707 15.229 23.079 17.9513 21.2741 20.0402L25.0781 23.8443C25.4186 24.1849 25.4186 24.737 25.0781 25.0776C24.7375 25.4182 24.1854 25.4182 23.8448 25.0776L20.0407 21.2736C17.9518 23.0785 15.2294 24.1702 12.2521 24.1702C5.66964 24.1702 0.333496 18.8341 0.333496 12.2516ZM12.2521 8.47255C12.7337 8.47255 13.1242 8.86301 13.1242 9.34465V11.3795H15.1591C15.6407 11.3795 16.0312 11.77 16.0312 12.2516C16.0312 12.7333 15.6407 13.1237 15.1591 13.1237H13.1242V15.1586C13.1242 15.6402 12.7337 16.0307 12.2521 16.0307C11.7705 16.0307 11.38 15.6402 11.38 15.1586V13.1237H9.34513C8.86349 13.1237 8.47304 12.7333 8.47304 12.2516C8.47304 11.77 8.86349 11.3795 9.34513 11.3795H11.38V9.34465C11.38 8.86301 11.7705 8.47255 12.2521 8.47255Z" fill="white"/>
</svg>
