<svg width="25" height="25" viewBox="0 0 25 25" fill="none" xmlns="http://www.w3.org/2000/svg">
<path fill-rule="evenodd" clip-rule="evenodd" d="M11.9186 1.74419C6.29944 1.74419 1.74419 6.29944 1.74419 11.9186C1.74419 17.5378 6.29944 22.093 11.9186 22.093C17.5378 22.093 22.093 17.5378 22.093 11.9186C22.093 6.29944 17.5378 1.74419 11.9186 1.74419ZM0 11.9186C0 5.33615 5.33615 0 11.9186 0C18.5011 0 23.8372 5.33615 23.8372 11.9186C23.8372 14.8959 22.7455 17.6183 20.9406 19.7072L24.7446 23.5113C25.0851 23.8519 25.0851 24.404 24.7446 24.7446C24.404 25.0851 23.8519 25.0851 23.5113 24.7446L19.7072 20.9406C17.6183 22.7455 14.8959 23.8372 11.9186 23.8372C5.33615 23.8372 0 18.5011 0 11.9186Z" fill="white"/>
</svg>
