<svg width="26" height="25" viewBox="0 0 26 25" fill="none" xmlns="http://www.w3.org/2000/svg">
<path fill-rule="evenodd" clip-rule="evenodd" d="M2.28789 11.4747C2.37123 5.11497 7.10817 0 12.9253 0C16.7723 0 20.1441 2.23624 22.012 5.58617C22.2642 6.03855 22.1361 6.63076 21.7258 6.90887C21.3155 7.18699 20.7784 7.04571 20.5262 6.59332C18.9646 3.79288 16.1457 1.92308 12.9253 1.92308C8.0597 1.92308 4.11691 6.18936 4.03235 11.4721L4.49791 10.9627C4.83982 10.5887 5.392 10.591 5.73123 10.9681C6.07047 11.345 6.0683 11.9538 5.72639 12.3278L3.77311 14.4646C3.4331 14.8365 2.88465 14.8365 2.54463 14.4646L0.591356 12.3278C0.249447 11.9538 0.247273 11.345 0.586507 10.9681C0.925741 10.5912 1.47792 10.5887 1.81983 10.9627L2.28789 11.4747ZM21.8876 10.5341C22.2273 10.1638 22.774 10.1638 23.1137 10.5341L25.0744 12.6709C25.417 13.0441 25.4203 13.6529 25.0816 14.0306C24.743 14.4083 24.1909 14.4119 23.8484 14.0386L23.3718 13.5191C23.2911 19.8851 18.5332 25 12.6969 25C8.83795 25 5.45423 22.7654 3.57909 19.4153C3.32614 18.9633 3.45336 18.3709 3.86325 18.0921C4.27312 17.8131 4.81045 17.9533 5.06339 18.4053C6.63074 21.2055 9.46144 23.0769 12.6969 23.0769C17.5879 23.0769 21.5455 18.804 21.6272 13.5217L21.1529 14.0386C20.8103 14.4119 20.2583 14.4083 19.9196 14.0306C19.581 13.6529 19.5843 13.0441 19.9269 12.6709L21.8876 10.5341Z" fill="white"/>
</svg>
